o ModelComponent
v -0.256273 0.09539 0.900955
v -0.256273 0.15 0.854439
v -0.854439 0.15 0.854439
v -0.900955 0.09539 0.900955
v 0.947327 0.09539 0.193691
v 0.947327 0.09539 -0.193691
v 0.898415 0.12217 -0.193691
v 0.898415 0.122169 0.193691
v -0.947327 0.09539 -0.193691
v -0.947327 0.09539 0.193691
v -0.898415 0.122169 0.193691
v -0.898415 0.12217 -0.193691
v 0.193691 0.09539 -0.947327
v -0.193691 0.09539 -0.947327
v -0.193691 0.12217 -0.898415
v 0.193691 0.12217 -0.898415
v -0.854439 0.15 0.256271
v -0.900955 0.09539 0.256271
v 0.854439 0.15 0.854439
v 0.256273 0.15 0.854439
v 0.256273 0.09539 0.900955
v 0.900955 0.09539 0.900955
v -0.193691 0.09539 0.947327
v -0.193691 0.122169 0.898415
v 0.193691 0.09539 0.947327
v 0.193691 0.122169 0.898415
v -0.854439 0.15 -0.854439
v -0.900955 0.09539 -0.900955
v -0.900955 0.09539 -0.256271
v -0.854439 0.15 -0.256271
v -0.450298 0.15 0.450481
v -0.256271 0.15 -0.854439
v -0.256271 0.09539 -0.900955
v -0.450298 0.15 -0.450115
v 0.900955 0.09539 0.256273
v 0.854439 0.15 0.256271
v 0.450298 0.15 0.450481
v 0.900955 0.09539 -0.256271
v 0.854439 0.15 -0.256271
v 0.557961 0.095225 -0.582092
v 0.524693 0.15 -0.545002
v 0.672195 0.15 -0.46653
v 0.706207 0.095223 -0.503181
v 0.861069 0.15 -0.396061
v 0.784569 0.15 -0.472279
v 0.450302 0.15 -0.45097
v 0.256273 0.095559 -0.900955
v 0.256273 0.15 -0.854439
v 0.477901 0.095224 -0.819687
v 0.444206 0.15 -0.774025
v 0.443619 0.15 -0.693596
v 0.477604 0.095224 -0.729744
v 0.364376 0.15 -0.854439
v 0.820641 0.095322 -0.5089
v 0.397751 0.095345 -0.900414
v 0.61166 0.057135 -0.23159
v 0.837502 0.057135 -0.177435
v 0.837502 0.057135 -0.802124
v 0.61166 0.057135 -0.802124
v 0.837502 0.003266 -0.177435
v 0.837502 0.003266 -0.802124
v 0.61166 0.003266 -0.802124
v 0.61166 0.003266 -0.23159
v 0.297192 0 -0.900955
v 0.404697 0 -0.900955
v 0.404697 0.135566 -0.900955
v 0.297192 0.135566 -0.900955
vt 0.3379 0.0922
vt 0.3389 0.1246
vt 0.0574 0.1296
vt 0.0296 0.1017
vt 0.9208 0.4414
vt 0.9215 0.6248
vt 0.895 0.6255
vt 0.8943 0.4409
vt 0.0025 0.6253
vt 0.0024 0.4417
vt 0.0289 0.4411
vt 0.029 0.6259
vt 0.5527 0.9935
vt 0.3693 0.993
vt 0.3687 0.9665
vt 0.5533 0.967
vt 0.0524 0.4111
vt 0.02 0.4101
vt 0.865 0.1295
vt 0.5838 0.1247
vt 0.5847 0.0923
vt 0.8929 0.1016
vt 0.3696 0.0745
vt 0.3689 0.1011
vt 0.5531 0.0747
vt 0.5537 0.1012
vt 0.0572 0.9373
vt 0.0293 0.9651
vt 0.0201 0.6569
vt 0.0525 0.656
vt 0.2466 0.3187
vt 0.3387 0.9429
vt 0.3376 0.9753
vt 0.2467 0.7485
vt 0.903 0.4098
vt 0.8706 0.4109
vt 0.6764 0.3188
vt 0.9041 0.6566
vt 0.8712 0.6553
vt 0.7359 0.8201
vt 0.7131 0.7954
vt 0.7845 0.7571
vt 0.8042 0.7858
vt 0.8724 0.7207
vt 0.8379 0.7566
vt 0.6778 0.7505
vt 0.5846 0.9759
vt 0.5829 0.9432
vt 0.6943 0.9325
vt 0.6713 0.9052
vt 0.6734 0.867
vt 0.7009 0.8884
vt 0.6335 0.9419
vt 0.861 0.7816
vt 0.6538 0.9713
vt 0.931 0.7072
vt 0.9749 0.6973
vt 0.9732 0.8184
vt 0.9294 0.8178
vt 0.9853 0.6974
vt 0.9836 0.8185
vt 0.919 0.8176
vt 0.9205 0.707
vt 0.9007 0.2471
vt 0.9007 0.051
vt 0.9225 0.051
vt 0.9225 0.2471
vn -0.0318 0.6943 0.7189
vn -0.0159 0.6893 0.7243
vn -0.1563 0.9753 0.1563
vn -0.5932 0.5441 0.5933
vn 0.4956 0.868 0.0319
vn 0.4964 0.8675 -0.0318
vn 0.5113 0.8571 -0.0622
vn 0.5096 0.8581 0.0622
vn -0.4956 0.868 -0.0319
vn -0.4956 0.868 0.0319
vn -0.5096 0.8581 0.0623
vn -0.5096 0.8581 -0.0623
vn 0.0316 0.8676 -0.4963
vn -0.0319 0.868 -0.4956
vn -0.0623 0.8581 -0.5096
vn 0.0618 0.8573 -0.5111
vn -0.7243 0.6893 0.0159
vn -0.7189 0.6943 0.0318
vn 0.1563 0.9753 0.1563
vn 0.0159 0.6893 0.7243
vn 0.0318 0.6943 0.7189
vn 0.5932 0.5441 0.5933
vn -0.0319 0.868 0.4956
vn -0.0622 0.8581 0.5096
vn 0.0319 0.868 0.4956
vn 0.0622 0.8581 0.5096
vn -0.4257 0.7985 -0.4257
vn -0.7189 0.6943 -0.0318
vn -0.7243 0.6893 -0.0159
vn -0.0193 0.9998 0.0022
vn -0.0193 0.9998 -0.0022
vn -0.4605 0.8876 0
vn -0.0068 1 0.0068
vn -0.0022 0.9998 0.0193
vn 0.0022 0.9998 0.0193
vn 0 0.8876 0.4605
vn -0.0159 0.6893 -0.7243
vn -0.0318 0.6943 -0.7189
vn -0.0069 1 -0.0062
vn -0.0023 0.9998 -0.0176
vn -0.0068 1 -0.0068
vn 0.7189 0.6943 0.0318
vn 0.7243 0.6893 0.0159
vn 0.0176 0.9998 0.0023
vn 0.0062 1 0.0069
vn 0.7223 0.6861 -0.0864
vn 0.7414 0.6697 -0.0433
vn 0.022 0.9998 0
vn 0.4709 0.8822 0.0013
vn 0.5052 0.701 -0.5034
vn 0.4984 0.7012 -0.5099
vn 0.2446 0.6708 -0.7001
vn 0.1632 0.6478 -0.7441
vn 0.0118 0.9998 -0.0133
vn -0.0003 1 -0.0017
vn 0.006 1 -0.006
vn 0.0221 0.9995 -0.0212
vn 0.0006 1 -0.0006
vn 0.1119 0.7082 -0.6971
vn 0.0665 0.6954 -0.7155
vn -0.0013 0.8822 -0.4709
vn 0 0.9998 -0.0222
vn 0.8332 0.553 0.0044
vn 0.6921 0.6642 -0.2823
vn 0.7372 0.6423 -0.2098
vn 0.0142 0.9998 -0.0129
vn 0.002 1 0.0003
vn -0.0419 0.5666 -0.8229
vn 0.7644 0.6446 0.0156
vn 0.0028 0.6741 -0.7386
vn 0.4828 0.7209 -0.4972
vn 0.4767 0.7417 -0.4719
vn 0 1 0
vn 1 0 0
vn -1 0 0
vn -0.1058 0 0.9944
vn 0.0923 0.0043 0.9957
vn 0.0933 0.1715 0.9808
vn -0.1015 0.1689 0.9804
g ModelComponent
f 1/1/1 2/2/2 3/3/3 4/4/4
f 5/5/5 6/6/6 7/7/7 8/8/8
f 9/9/9 10/10/10 11/11/11 12/12/12
f 13/13/13 14/14/14 15/15/15 16/16/16
f 3/3/3 17/17/17 18/18/18 4/4/4
f 19/19/19 20/20/20 21/21/21 22/22/22
f 1/1/1 23/23/23 24/24/24 2/2/2
f 23/23/23 25/25/25 26/26/26 24/24/24
f 21/21/21 20/20/20 26/26/26 25/25/25
f 18/18/18 17/17/17 11/11/11 10/10/10
f 27/27/27 28/28/27 29/29/28 30/30/29
f 29/29/28 9/9/9 12/12/12 30/30/29
f 17/17/30 30/30/31 12/12/32 11/11/32
f 31/31/33 17/17/30 3/3/3 2/2/34
f 20/20/35 2/2/34 24/24/36 26/26/36
f 27/27/27 32/32/37 33/33/38 28/28/27
f 34/34/39 32/32/40 27/27/41 30/30/31
f 33/33/38 32/32/37 15/15/15 14/14/14
f 31/31/33 34/34/39 30/30/31 17/17/30
f 19/19/19 22/22/22 35/35/42 36/36/43
f 35/35/42 5/5/5 8/8/8 36/36/43
f 19/19/19 36/36/44 37/37/45 20/20/35
f 31/31/33 2/2/34 20/20/35 37/37/45
f 38/38/46 39/39/47 7/7/7 6/6/6
f 39/39/48 36/36/44 8/8/49 7/7/49
f 40/40/50 41/41/51 42/42/52 43/43/53
f 42/42/54 39/39/48 44/44/55 45/45/55
f 37/37/45 36/36/44 39/39/48 46/46/56
f 41/41/57 46/46/56 42/42/54
f 42/42/54 46/46/56 39/39/48
f 46/46/58 34/34/58 31/31/58 37/37/58
f 47/47/59 13/13/13 16/16/16 48/48/60
f 16/16/61 15/15/61 32/32/40 48/48/62
f 49/49/63 50/50/63 51/51/64 52/52/65
f 48/48/62 51/51/66 50/50/67 53/53/67
f 51/51/64 41/41/51 40/40/50 52/52/65
f 46/46/56 48/48/62 32/32/40 34/34/39
f 46/46/56 41/41/57 51/51/66
f 48/48/62 46/46/56 51/51/66
f 45/45/68 54/54/68 43/43/53 42/42/52
f 44/44/69 39/39/47 38/38/46
f 53/53/70 55/55/70 47/47/59 48/48/60
f 45/45/71 44/44/71 54/54/71
f 53/53/72 50/50/72 49/49/72 55/55/72
f 56/56/73 57/57/73 58/58/73 59/59/73
f 60/60/74 61/61/74 58/58/74 57/57/74
f 62/62/75 63/63/75 56/56/75 59/59/75
f 64/64/76 65/65/77 66/66/78 67/67/79
#h 44,45,46
